<?xml version="1.0" encoding="UTF-8" ?>
<svg width="1108pt" height="2708pt" viewBox="0.00 0.00 1108.38 2708.00" xmlns="http://www.w3.org/2000/svg" xmlns:xlink="http://www.w3.org/1999/xlink">
<g id="graph0" class="graph" transform="scale(1 1) rotate(0) translate(4 2704)">
<title>%0</title>
<polygon fill="#ffffff" stroke="transparent" points="-4,4 -4,-2704 1104.3806,-2704 1104.3806,4 -4,4"/>
<!-- ls -->
<g id="node1" class="node">
<title>ls</title>
<polygon fill="none" stroke="#000000" points="274.3806,-900 220.3806,-900 220.3806,-864 274.3806,-864 274.3806,-900"/>
<text text-anchor="middle" x="247.3806" y="-877.8" font-family="Times,serif" font-size="14.00" fill="#000000">ls</text>
</g>
<!-- sk -->
<g id="node9" class="node">
<title>sk</title>
<polygon fill="none" stroke="#000000" points="286.3806,-324 258.383,-306 286.3806,-288 314.3782,-306 286.3806,-324"/>
<text text-anchor="middle" x="286.3806" y="-301.8" font-family="Times,serif" font-size="14.00" fill="#000000">sk</text>
</g>
<!-- ls&#45;&gt;sk -->
<g id="edge4" class="edge">
<title>ls-&gt;sk</title>
<path fill="none" stroke="#000000" d="M259.7487,-863.8166C276.5129,-837.3548 304.3806,-786.1283 304.3806,-738 304.3806,-738 304.3806,-738 304.3806,-450 304.3806,-408.4467 296.9094,-360.6658 291.5937,-331.929"/>
<polygon fill="#000000" stroke="#000000" points="294.9928,-331.0682 289.6821,-321.9005 288.1166,-332.379 294.9928,-331.0682"/>
</g>
<!-- fl -->
<g id="node10" class="node">
<title>fl</title>
<polygon fill="none" stroke="#000000" points="228.3806,-468 201.3806,-450 228.3806,-432 255.3806,-450 228.3806,-468"/>
<text text-anchor="middle" x="228.3806" y="-445.8" font-family="Times,serif" font-size="14.00" fill="#000000">fl</text>
</g>
<!-- ls&#45;&gt;fl -->
<g id="edge3" class="edge">
<title>ls-&gt;fl</title>
<path fill="none" stroke="#000000" d="M251.3174,-863.9156C256.8826,-836.7281 266.3806,-783.6422 266.3806,-738 266.3806,-738 266.3806,-738 266.3806,-594 266.3806,-550.2471 249.7771,-501.4178 238.5202,-473.3404"/>
<polygon fill="#000000" stroke="#000000" points="241.7078,-471.8895 234.6555,-463.9828 235.2379,-474.5617 241.7078,-471.8895"/>
</g>
<!-- hz -->
<g id="node21" class="node">
<title>hz</title>
<polygon fill="none" stroke="#000000" points="58.3806,-828 29.883,-810 58.3806,-792 86.8782,-810 58.3806,-828"/>
<text text-anchor="middle" x="58.3806" y="-805.8" font-family="Times,serif" font-size="14.00" fill="#000000">hz</text>
</g>
<!-- ls&#45;&gt;hz -->
<g id="edge2" class="edge">
<title>ls-&gt;hz</title>
<path fill="none" stroke="#000000" d="M220.2378,-874.6556C188.6517,-864.574 135.8456,-845.681 91.3806,-828 88.0357,-826.6699 84.557,-825.2459 81.1473,-823.8029"/>
<polygon fill="#000000" stroke="#000000" points="82.4524,-820.5537 71.8882,-819.7487 79.6447,-826.9659 82.4524,-820.5537"/>
</g>
<!-- ck -->
<g id="node41" class="node">
<title>ck</title>
<polygon fill="none" stroke="#000000" points="172.3806,-684 143.883,-666 172.3806,-648 200.8782,-666 172.3806,-684"/>
<text text-anchor="middle" x="172.3806" y="-661.8" font-family="Times,serif" font-size="14.00" fill="#000000">ck</text>
</g>
<!-- ls&#45;&gt;ck -->
<g id="edge6" class="edge">
<title>ls-&gt;ck</title>
<path fill="none" stroke="#000000" d="M234.3501,-863.7388C227.6086,-853.6039 219.6999,-840.5425 214.3806,-828 195.0156,-782.3392 182.8015,-725.5417 176.812,-692.762"/>
<polygon fill="#000000" stroke="#000000" points="180.206,-691.8547 175.0181,-682.6169 173.3129,-693.0736 180.206,-691.8547"/>
</g>
<!-- fg -->
<g id="node42" class="node">
<title>fg</title>
<polygon fill="none" stroke="#000000" points="500.3806,-828 446.3806,-828 446.3806,-792 500.3806,-792 500.3806,-828"/>
<text text-anchor="middle" x="473.3806" y="-805.8" font-family="Times,serif" font-size="14.00" fill="#000000">fg</text>
</g>
<!-- ls&#45;&gt;fg -->
<g id="edge1" class="edge">
<title>ls-&gt;fg</title>
<path fill="none" stroke="#000000" d="M274.3854,-875.2933C310.7306,-866.0014 377.198,-848.071 432.3806,-828 433.796,-827.4852 435.2321,-826.9452 436.6775,-826.3867"/>
<polygon fill="#000000" stroke="#000000" points="438.2857,-829.5113 446.2338,-822.5057 435.6518,-823.0257 438.2857,-829.5113"/>
</g>
<!-- fv -->
<g id="node56" class="node">
<title>fv</title>
<polygon fill="none" stroke="#000000" points="135.3806,-756 108.3806,-738 135.3806,-720 162.3806,-738 135.3806,-756"/>
<text text-anchor="middle" x="135.3806" y="-733.8" font-family="Times,serif" font-size="14.00" fill="#000000">fv</text>
</g>
<!-- ls&#45;&gt;fv -->
<g id="edge5" class="edge">
<title>ls-&gt;fv</title>
<path fill="none" stroke="#000000" d="M220.124,-865.9326C205.6734,-856.354 188.4625,-843.1249 176.3806,-828 160.7566,-808.441 149.6305,-781.9688 142.9467,-762.8017"/>
<polygon fill="#000000" stroke="#000000" points="146.2498,-761.6426 139.7731,-753.2579 139.6074,-763.8514 146.2498,-761.6426"/>
</g>
<!-- px -->
<g id="node2" class="node">
<title>px</title>
<polygon fill="none" stroke="#000000" points="361.3806,-108 332.3488,-90 361.3806,-72 390.4124,-90 361.3806,-108"/>
<text text-anchor="middle" x="361.3806" y="-85.8" font-family="Times,serif" font-size="14.00" fill="#000000">px</text>
</g>
<!-- px&#45;&gt;ls -->
<g id="edge7" class="edge">
<title>px-&gt;ls</title>
<path fill="none" stroke="#000000" d="M364.8655,-105.8913C370.3506,-132.3333 380.3806,-187.097 380.3806,-234 380.3806,-738 380.3806,-738 380.3806,-738 380.3806,-795.1833 323.0823,-839.3377 283.7028,-862.9312"/>
<polygon fill="#000000" stroke="#000000" points="281.5079,-860.1583 274.6161,-868.2053 285.0218,-866.2125 281.5079,-860.1583"/>
</g>
<!-- dv -->
<g id="node37" class="node">
<title>dv</title>
<polygon fill="none" stroke="#000000" points="389.3806,-36 360.3488,-18 389.3806,0 418.4124,-18 389.3806,-36"/>
<text text-anchor="middle" x="389.3806" y="-13.8" font-family="Times,serif" font-size="14.00" fill="#000000">dv</text>
</g>
<!-- px&#45;&gt;dv -->
<g id="edge8" class="edge">
<title>px-&gt;dv</title>
<path fill="none" stroke="#000000" d="M367.0468,-75.4297C370.7661,-65.8658 375.7192,-53.1292 380.0158,-42.0809"/>
<polygon fill="#000000" stroke="#000000" points="383.3603,-43.1372 383.7228,-32.5486 376.8363,-40.6001 383.3603,-43.1372"/>
</g>
<!-- jk -->
<g id="node3" class="node">
<title>jk</title>
<polygon fill="none" stroke="#000000" points="837.3806,-1908 810.3806,-1890 837.3806,-1872 864.3806,-1890 837.3806,-1908"/>
<text text-anchor="middle" x="837.3806" y="-1885.8" font-family="Times,serif" font-size="14.00" fill="#000000">jk</text>
</g>
<!-- tx -->
<g id="node48" class="node">
<title>tx</title>
<polygon fill="none" stroke="#000000" points="891.3806,-1764 837.3806,-1764 837.3806,-1728 891.3806,-1728 891.3806,-1764"/>
<text text-anchor="middle" x="864.3806" y="-1741.8" font-family="Times,serif" font-size="14.00" fill="#000000">tx</text>
</g>
<!-- jk&#45;&gt;tx -->
<g id="edge10" class="edge">
<title>jk-&gt;tx</title>
<path fill="none" stroke="#000000" d="M826.8873,-1878.7624C812.1772,-1861.5758 788.5824,-1827.826 801.3806,-1800 807.3286,-1787.0678 818.0709,-1776.0737 829.0204,-1767.4482"/>
<polygon fill="#000000" stroke="#000000" points="831.3725,-1770.0633 837.3579,-1761.3211 827.2272,-1764.4226 831.3725,-1770.0633"/>
</g>
<!-- xt -->
<g id="node51" class="node">
<title>xt</title>
<polygon fill="none" stroke="#000000" points="837.3806,-1836 810.3806,-1818 837.3806,-1800 864.3806,-1818 837.3806,-1836"/>
<text text-anchor="middle" x="837.3806" y="-1813.8" font-family="Times,serif" font-size="14.00" fill="#000000">xt</text>
</g>
<!-- jk&#45;&gt;xt -->
<g id="edge9" class="edge">
<title>jk-&gt;xt</title>
<path fill="none" stroke="#000000" d="M837.3806,-1871.8314C837.3806,-1864.131 837.3806,-1854.9743 837.3806,-1846.4166"/>
<polygon fill="#000000" stroke="#000000" points="840.8807,-1846.4132 837.3806,-1836.4133 833.8807,-1846.4133 840.8807,-1846.4132"/>
</g>
<!-- hd -->
<g id="node4" class="node">
<title>hd</title>
<polygon fill="none" stroke="#000000" points="303.3806,-1188 274.3488,-1170 303.3806,-1152 332.4124,-1170 303.3806,-1188"/>
<text text-anchor="middle" x="303.3806" y="-1165.8" font-family="Times,serif" font-size="14.00" fill="#000000">hd</text>
</g>
<!-- fs -->
<g id="node29" class="node">
<title>fs</title>
<polygon fill="none" stroke="#000000" points="312.3806,-1692 258.3806,-1692 258.3806,-1656 312.3806,-1656 312.3806,-1692"/>
<text text-anchor="middle" x="285.3806" y="-1669.8" font-family="Times,serif" font-size="14.00" fill="#000000">fs</text>
</g>
<!-- hd&#45;&gt;fs -->
<g id="edge11" class="edge">
<title>hd-&gt;fs</title>
<path fill="none" stroke="#000000" d="M281.9231,-1174.8073C230.865,-1187.6462 106.3806,-1227.7886 106.3806,-1314 106.3806,-1458 106.3806,-1458 106.3806,-1458 106.3806,-1538.4984 124.8762,-1569.2733 187.3806,-1620 206.0464,-1635.1487 229.5663,-1648.27 248.8855,-1657.7843"/>
<polygon fill="#000000" stroke="#000000" points="247.4629,-1660.9837 257.9924,-1662.1582 250.4935,-1654.6737 247.4629,-1660.9837"/>
</g>
<!-- vn -->
<g id="node30" class="node">
<title>vn</title>
<polygon fill="none" stroke="#000000" points="361.3806,-1116 332.3488,-1098 361.3806,-1080 390.4124,-1098 361.3806,-1116"/>
<text text-anchor="middle" x="361.3806" y="-1093.8" font-family="Times,serif" font-size="14.00" fill="#000000">vn</text>
</g>
<!-- hd&#45;&gt;vn -->
<g id="edge12" class="edge">
<title>hd-&gt;vn</title>
<path fill="none" stroke="#000000" d="M313.2195,-1157.7862C322.0216,-1146.8595 335.0863,-1130.6412 345.3885,-1117.8523"/>
<polygon fill="#000000" stroke="#000000" points="348.1393,-1120.0167 351.687,-1110.0334 342.688,-1115.6253 348.1393,-1120.0167"/>
</g>
<!-- pk -->
<g id="node5" class="node">
<title>pk</title>
<polygon fill="none" stroke="#000000" points="517.3806,-2556 488.3488,-2538 517.3806,-2520 546.4124,-2538 517.3806,-2556"/>
<text text-anchor="middle" x="517.3806" y="-2533.8" font-family="Times,serif" font-size="14.00" fill="#000000">pk</text>
</g>
<!-- ql -->
<g id="node19" class="node">
<title>ql</title>
<polygon fill="none" stroke="#000000" points="481.3806,-2484 454.3806,-2466 481.3806,-2448 508.3806,-2466 481.3806,-2484"/>
<text text-anchor="middle" x="481.3806" y="-2461.8" font-family="Times,serif" font-size="14.00" fill="#000000">ql</text>
</g>
<!-- pk&#45;&gt;ql -->
<g id="edge13" class="edge">
<title>pk-&gt;ql</title>
<path fill="none" stroke="#000000" d="M510.4394,-2524.1177C505.4591,-2514.1571 498.6347,-2500.5083 492.8508,-2488.9405"/>
<polygon fill="#000000" stroke="#000000" points="495.9031,-2487.2187 488.3004,-2479.8397 489.6421,-2490.3493 495.9031,-2487.2187"/>
</g>
<!-- bj -->
<g id="node6" class="node">
<title>bj</title>
<polygon fill="none" stroke="#000000" points="917.3806,-2268 890.3806,-2250 917.3806,-2232 944.3806,-2250 917.3806,-2268"/>
<text text-anchor="middle" x="917.3806" y="-2245.8" font-family="Times,serif" font-size="14.00" fill="#000000">bj</text>
</g>
<!-- pr -->
<g id="node12" class="node">
<title>pr</title>
<polygon fill="none" stroke="#000000" points="882.3806,-2196 855.3806,-2178 882.3806,-2160 909.3806,-2178 882.3806,-2196"/>
<text text-anchor="middle" x="882.3806" y="-2173.8" font-family="Times,serif" font-size="14.00" fill="#000000">pr</text>
</g>
<!-- bj&#45;&gt;pr -->
<g id="edge15" class="edge">
<title>bj-&gt;pr</title>
<path fill="none" stroke="#000000" d="M910.6322,-2236.1177C905.7903,-2226.1571 899.1554,-2212.5083 893.5322,-2200.9405"/>
<polygon fill="#000000" stroke="#000000" points="896.628,-2199.3032 889.1082,-2191.8397 890.3324,-2202.3636 896.628,-2199.3032"/>
</g>
<!-- bj&#45;&gt;tx -->
<g id="edge14" class="edge">
<title>bj-&gt;tx</title>
<path fill="none" stroke="#000000" d="M925.3493,-2237.0478C939.6931,-2212.4608 968.3806,-2156.9215 968.3806,-2106 968.3806,-2106 968.3806,-2106 968.3806,-1890 968.3806,-1840.6014 927.6613,-1796.6421 897.1809,-1770.6562"/>
<polygon fill="#000000" stroke="#000000" points="899.2273,-1767.8068 889.2912,-1764.1293 894.7654,-1773.2004 899.2273,-1767.8068"/>
</g>
<!-- vg -->
<g id="node7" class="node">
<title>vg</title>
<polygon fill="none" stroke="#000000" points="269.3806,-2124 240.3488,-2106 269.3806,-2088 298.4124,-2106 269.3806,-2124"/>
<text text-anchor="middle" x="269.3806" y="-2101.8" font-family="Times,serif" font-size="14.00" fill="#000000">vg</text>
</g>
<!-- xl -->
<g id="node24" class="node">
<title>xl</title>
<polygon fill="none" stroke="#000000" points="269.3806,-2052 242.3806,-2034 269.3806,-2016 296.3806,-2034 269.3806,-2052"/>
<text text-anchor="middle" x="269.3806" y="-2029.8" font-family="Times,serif" font-size="14.00" fill="#000000">xl</text>
</g>
<!-- vg&#45;&gt;xl -->
<g id="edge16" class="edge">
<title>vg-&gt;xl</title>
<path fill="none" stroke="#000000" d="M269.3806,-2087.8314C269.3806,-2080.131 269.3806,-2070.9743 269.3806,-2062.4166"/>
<polygon fill="#000000" stroke="#000000" points="272.8807,-2062.4132 269.3806,-2052.4133 265.8807,-2062.4133 272.8807,-2062.4132"/>
</g>
<!-- sf -->
<g id="node43" class="node">
<title>sf</title>
<polygon fill="none" stroke="#000000" points="392.3806,-1764 338.3806,-1764 338.3806,-1728 392.3806,-1728 392.3806,-1764"/>
<text text-anchor="middle" x="365.3806" y="-1741.8" font-family="Times,serif" font-size="14.00" fill="#000000">sf</text>
</g>
<!-- vg&#45;&gt;sf -->
<g id="edge17" class="edge">
<title>vg-&gt;sf</title>
<path fill="none" stroke="#000000" d="M287.5325,-2099.0685C328.0606,-2082.2758 422.3806,-2035.3186 422.3806,-1962 422.3806,-1962 422.3806,-1962 422.3806,-1890 422.3806,-1849.1184 419.7001,-1837.4831 403.3806,-1800 399.237,-1790.483 393.2707,-1780.9427 387.2894,-1772.5863"/>
<polygon fill="#000000" stroke="#000000" points="389.9225,-1770.2633 381.1266,-1764.3571 384.3195,-1774.4594 389.9225,-1770.2633"/>
</g>
<!-- cj -->
<g id="node8" class="node">
<title>cj</title>
<polygon fill="none" stroke="#000000" points="917.3806,-2340 890.3806,-2322 917.3806,-2304 944.3806,-2322 917.3806,-2340"/>
<text text-anchor="middle" x="917.3806" y="-2317.8" font-family="Times,serif" font-size="14.00" fill="#000000">cj</text>
</g>
<!-- cj&#45;&gt;bj -->
<g id="edge18" class="edge">
<title>cj-&gt;bj</title>
<path fill="none" stroke="#000000" d="M917.3806,-2303.8314C917.3806,-2296.131 917.3806,-2286.9743 917.3806,-2278.4166"/>
<polygon fill="#000000" stroke="#000000" points="920.8807,-2278.4132 917.3806,-2268.4133 913.8807,-2278.4133 920.8807,-2278.4132"/>
</g>
<!-- bz -->
<g id="node36" class="node">
<title>bz</title>
<polygon fill="none" stroke="#000000" points="286.3806,-252 257.883,-234 286.3806,-216 314.8782,-234 286.3806,-252"/>
<text text-anchor="middle" x="286.3806" y="-229.8" font-family="Times,serif" font-size="14.00" fill="#000000">bz</text>
</g>
<!-- sk&#45;&gt;bz -->
<g id="edge19" class="edge">
<title>sk-&gt;bz</title>
<path fill="none" stroke="#000000" d="M286.3806,-287.8314C286.3806,-280.131 286.3806,-270.9743 286.3806,-262.4166"/>
<polygon fill="#000000" stroke="#000000" points="289.8807,-262.4132 286.3806,-252.4133 282.8807,-262.4133 289.8807,-262.4132"/>
</g>
<!-- fx -->
<g id="node32" class="node">
<title>fx</title>
<polygon fill="none" stroke="#000000" points="228.3806,-396 201.3806,-378 228.3806,-360 255.3806,-378 228.3806,-396"/>
<text text-anchor="middle" x="228.3806" y="-373.8" font-family="Times,serif" font-size="14.00" fill="#000000">fx</text>
</g>
<!-- fl&#45;&gt;fx -->
<g id="edge20" class="edge">
<title>fl-&gt;fx</title>
<path fill="none" stroke="#000000" d="M228.3806,-431.8314C228.3806,-424.131 228.3806,-414.9743 228.3806,-406.4166"/>
<polygon fill="#000000" stroke="#000000" points="231.8807,-406.4132 228.3806,-396.4133 224.8807,-406.4133 231.8807,-406.4132"/>
</g>
<!-- th -->
<g id="node11" class="node">
<title>th</title>
<polygon fill="none" stroke="#000000" points="190.3806,-540 163.3806,-522 190.3806,-504 217.3806,-522 190.3806,-540"/>
<text text-anchor="middle" x="190.3806" y="-517.8" font-family="Times,serif" font-size="14.00" fill="#000000">th</text>
</g>
<!-- th&#45;&gt;ls -->
<g id="edge22" class="edge">
<title>th-&gt;ls</title>
<path fill="none" stroke="#000000" d="M179.8558,-533.5268C150.3528,-567.2844 70.823,-669.0322 99.3806,-756 111.7771,-793.7517 122.6802,-801.604 152.3806,-828 169.7278,-843.4171 192.1891,-856.4307 210.9157,-865.8173"/>
<polygon fill="#000000" stroke="#000000" points="209.5213,-869.0311 220.0448,-870.2585 212.5836,-862.7365 209.5213,-869.0311"/>
</g>
<!-- th&#45;&gt;fl -->
<g id="edge21" class="edge">
<title>th-&gt;fl</title>
<path fill="none" stroke="#000000" d="M197.5281,-508.4574C202.8888,-498.3002 210.3455,-484.1718 216.5852,-472.3492"/>
<polygon fill="#000000" stroke="#000000" points="219.6928,-473.9595 221.2651,-463.4819 213.5021,-470.6921 219.6928,-473.9595"/>
</g>
<!-- gm -->
<g id="node20" class="node">
<title>gm</title>
<polygon fill="none" stroke="#000000" points="882.3806,-2124 849.26,-2106 882.3806,-2088 915.5012,-2106 882.3806,-2124"/>
<text text-anchor="middle" x="882.3806" y="-2101.8" font-family="Times,serif" font-size="14.00" fill="#000000">gm</text>
</g>
<!-- pr&#45;&gt;gm -->
<g id="edge23" class="edge">
<title>pr-&gt;gm</title>
<path fill="none" stroke="#000000" d="M882.3806,-2159.8314C882.3806,-2152.131 882.3806,-2142.9743 882.3806,-2134.4166"/>
<polygon fill="#000000" stroke="#000000" points="885.8807,-2134.4132 882.3806,-2124.4133 878.8807,-2134.4133 885.8807,-2134.4132"/>
</g>
<!-- xv -->
<g id="node13" class="node">
<title>xv</title>
<polygon fill="none" stroke="#000000" points="327.3806,-1908 298.3488,-1890 327.3806,-1872 356.4124,-1890 327.3806,-1908"/>
<text text-anchor="middle" x="327.3806" y="-1885.8" font-family="Times,serif" font-size="14.00" fill="#000000">xv</text>
</g>
<!-- xv&#45;&gt;sf -->
<g id="edge24" class="edge">
<title>xv-&gt;sf</title>
<path fill="none" stroke="#000000" d="M324.4779,-1873.6192C321.8762,-1855.2292 319.5521,-1824.7279 327.3806,-1800 330.4621,-1790.2664 335.9988,-1780.7695 341.9095,-1772.5228"/>
<polygon fill="#000000" stroke="#000000" points="344.8116,-1774.49 348.117,-1764.4239 339.2558,-1770.2316 344.8116,-1774.49"/>
</g>
<!-- hp -->
<g id="node47" class="node">
<title>hp</title>
<polygon fill="none" stroke="#000000" points="365.3806,-1836 336.3488,-1818 365.3806,-1800 394.4124,-1818 365.3806,-1836"/>
<text text-anchor="middle" x="365.3806" y="-1813.8" font-family="Times,serif" font-size="14.00" fill="#000000">hp</text>
</g>
<!-- xv&#45;&gt;hp -->
<g id="edge25" class="edge">
<title>xv-&gt;hp</title>
<path fill="none" stroke="#000000" d="M334.7074,-1876.1177C339.9644,-1866.1571 347.1679,-1852.5083 353.2731,-1840.9405"/>
<polygon fill="#000000" stroke="#000000" points="356.504,-1842.3172 358.0763,-1831.8397 350.3133,-1839.0499 356.504,-1842.3172"/>
</g>
<!-- mh -->
<g id="node14" class="node">
<title>mh</title>
<polygon fill="none" stroke="#000000" points="167.3806,-1548 134.26,-1530 167.3806,-1512 200.5012,-1530 167.3806,-1548"/>
<text text-anchor="middle" x="167.3806" y="-1525.8" font-family="Times,serif" font-size="14.00" fill="#000000">mh</text>
</g>
<!-- jb -->
<g id="node44" class="node">
<title>jb</title>
<polygon fill="none" stroke="#000000" points="211.3806,-1476 184.3806,-1458 211.3806,-1440 238.3806,-1458 211.3806,-1476"/>
<text text-anchor="middle" x="211.3806" y="-1453.8" font-family="Times,serif" font-size="14.00" fill="#000000">jb</text>
</g>
<!-- mh&#45;&gt;jb -->
<g id="edge26" class="edge">
<title>mh-&gt;jb</title>
<path fill="none" stroke="#000000" d="M175.6567,-1516.4574C182.0046,-1506.0698 190.8908,-1491.5288 198.2122,-1479.5483"/>
<polygon fill="#000000" stroke="#000000" points="201.2099,-1481.3549 203.438,-1470.997 195.237,-1477.7047 201.2099,-1481.3549"/>
</g>
<!-- jh -->
<g id="node15" class="node">
<title>jh</title>
<polygon fill="none" stroke="#000000" points="802.3806,-2484 775.3806,-2466 802.3806,-2448 829.3806,-2466 802.3806,-2484"/>
<text text-anchor="middle" x="802.3806" y="-2461.8" font-family="Times,serif" font-size="14.00" fill="#000000">jh</text>
</g>
<!-- kx -->
<g id="node18" class="node">
<title>kx</title>
<polygon fill="none" stroke="#000000" points="802.3806,-2412 773.3488,-2394 802.3806,-2376 831.4124,-2394 802.3806,-2412"/>
<text text-anchor="middle" x="802.3806" y="-2389.8" font-family="Times,serif" font-size="14.00" fill="#000000">kx</text>
</g>
<!-- jh&#45;&gt;kx -->
<g id="edge27" class="edge">
<title>jh-&gt;kx</title>
<path fill="none" stroke="#000000" d="M802.3806,-2447.8314C802.3806,-2440.131 802.3806,-2430.9743 802.3806,-2422.4166"/>
<polygon fill="#000000" stroke="#000000" points="805.8807,-2422.4132 802.3806,-2412.4133 798.8807,-2422.4133 805.8807,-2422.4132"/>
</g>
<!-- jh&#45;&gt;tx -->
<g id="edge28" class="edge">
<title>jh-&gt;tx</title>
<path fill="none" stroke="#000000" d="M783.6462,-2460.3147C739.0675,-2445.4996 630.3806,-2401.2524 630.3806,-2322 630.3806,-2322 630.3806,-2322 630.3806,-1890 630.3806,-1844.4558 643.9128,-1828.5711 679.3806,-1800 722.4056,-1765.3412 786.8966,-1752.9269 827.2606,-1748.4806"/>
<polygon fill="#000000" stroke="#000000" points="827.6179,-1751.9625 837.223,-1747.4912 826.926,-1744.9967 827.6179,-1751.9625"/>
</g>
<!-- jz -->
<g id="node16" class="node">
<title>jz</title>
<polygon fill="none" stroke="#000000" points="287.3806,-1332 260.3806,-1314 287.3806,-1296 314.3806,-1314 287.3806,-1332"/>
<text text-anchor="middle" x="287.3806" y="-1309.8" font-family="Times,serif" font-size="14.00" fill="#000000">jz</text>
</g>
<!-- jz&#45;&gt;fs -->
<g id="edge30" class="edge">
<title>jz-&gt;fs</title>
<path fill="none" stroke="#000000" d="M290.5782,-1330.3386C295.5026,-1356.9661 304.3806,-1411.4288 304.3806,-1458 304.3806,-1530 304.3806,-1530 304.3806,-1530 304.3806,-1570.4718 296.9126,-1616.7963 291.3406,-1645.7275"/>
<polygon fill="#000000" stroke="#000000" points="287.8323,-1645.4254 289.3174,-1655.9156 294.6982,-1646.7889 287.8323,-1645.4254"/>
</g>
<!-- pm -->
<g id="node55" class="node">
<title>pm</title>
<polygon fill="none" stroke="#000000" points="303.3806,-1260 270.26,-1242 303.3806,-1224 336.5012,-1242 303.3806,-1260"/>
<text text-anchor="middle" x="303.3806" y="-1237.8" font-family="Times,serif" font-size="14.00" fill="#000000">pm</text>
</g>
<!-- jz&#45;&gt;pm -->
<g id="edge29" class="edge">
<title>jz-&gt;pm</title>
<path fill="none" stroke="#000000" d="M290.9315,-1298.0209C292.8857,-1289.2269 295.3593,-1278.0958 297.5857,-1268.0769"/>
<polygon fill="#000000" stroke="#000000" points="301.0315,-1268.7046 299.7843,-1258.1834 294.1982,-1267.186 301.0315,-1268.7046"/>
</g>
<!-- hr -->
<g id="node17" class="node">
<title>hr</title>
<polygon fill="none" stroke="#000000" points="1058.3806,-2628 1031.3806,-2610 1058.3806,-2592 1085.3806,-2610 1058.3806,-2628"/>
<text text-anchor="middle" x="1058.3806" y="-2605.8" font-family="Times,serif" font-size="14.00" fill="#000000">hr</text>
</g>
<!-- gk -->
<g id="node34" class="node">
<title>gk</title>
<polygon fill="none" stroke="#000000" points="1025.3806,-2556 996.3488,-2538 1025.3806,-2520 1054.4124,-2538 1025.3806,-2556"/>
<text text-anchor="middle" x="1025.3806" y="-2533.8" font-family="Times,serif" font-size="14.00" fill="#000000">gk</text>
</g>
<!-- hr&#45;&gt;gk -->
<g id="edge32" class="edge">
<title>hr-&gt;gk</title>
<path fill="none" stroke="#000000" d="M1052.0179,-2596.1177C1047.5562,-2586.3831 1041.4799,-2573.1258 1036.2574,-2561.7312"/>
<polygon fill="#000000" stroke="#000000" points="1039.298,-2559.9649 1031.9497,-2552.3325 1032.9345,-2562.8815 1039.298,-2559.9649"/>
</g>
<!-- hr&#45;&gt;tx -->
<g id="edge31" class="edge">
<title>hr-&gt;tx</title>
<path fill="none" stroke="#000000" d="M1059.2926,-2592.5607C1065.7013,-2565.7688 1082.3806,-2512.6795 1082.3806,-2466 1082.3806,-2466 1082.3806,-2466 1082.3806,-1890 1082.3806,-1803.5709 963.5897,-1766.8311 901.2817,-1753.1192"/>
<polygon fill="#000000" stroke="#000000" points="901.9385,-1749.6807 891.431,-1751.0386 900.4919,-1756.5296 901.9385,-1749.6807"/>
</g>
<!-- kx&#45;&gt;cj -->
<g id="edge33" class="edge">
<title>kx-&gt;cj</title>
<path fill="none" stroke="#000000" d="M816.9454,-2384.8812C836.5806,-2372.5878 871.7349,-2350.5782 894.8083,-2336.1322"/>
<polygon fill="#000000" stroke="#000000" points="896.6752,-2339.0928 903.2937,-2330.8196 892.9605,-2333.1597 896.6752,-2339.0928"/>
</g>
<!-- jx -->
<g id="node26" class="node">
<title>jx</title>
<polygon fill="none" stroke="#000000" points="443.3806,-2412 416.3806,-2394 443.3806,-2376 470.3806,-2394 443.3806,-2412"/>
<text text-anchor="middle" x="443.3806" y="-2389.8" font-family="Times,serif" font-size="14.00" fill="#000000">jx</text>
</g>
<!-- ql&#45;&gt;jx -->
<g id="edge34" class="edge">
<title>ql-&gt;jx</title>
<path fill="none" stroke="#000000" d="M474.2331,-2452.4574C468.8723,-2442.3002 461.4157,-2428.1718 455.176,-2416.3492"/>
<polygon fill="#000000" stroke="#000000" points="458.259,-2414.6921 450.496,-2407.4819 452.0683,-2417.9595 458.259,-2414.6921"/>
</g>
<!-- jt -->
<g id="node31" class="node">
<title>jt</title>
<polygon fill="none" stroke="#000000" points="856.3806,-2052 829.3806,-2034 856.3806,-2016 883.3806,-2034 856.3806,-2052"/>
<text text-anchor="middle" x="856.3806" y="-2029.8" font-family="Times,serif" font-size="14.00" fill="#000000">jt</text>
</g>
<!-- gm&#45;&gt;jt -->
<g id="edge36" class="edge">
<title>gm-&gt;jt</title>
<path fill="none" stroke="#000000" d="M876.8667,-2090.7307C873.4778,-2081.3461 869.0593,-2069.1104 865.1938,-2058.4058"/>
<polygon fill="#000000" stroke="#000000" points="868.3972,-2056.9717 861.7087,-2048.7549 861.8133,-2059.3492 868.3972,-2056.9717"/>
</g>
<!-- gm&#45;&gt;tx -->
<g id="edge35" class="edge">
<title>gm-&gt;tx</title>
<path fill="none" stroke="#000000" d="M890.3068,-2092.2053C903.9402,-2067.1383 930.3806,-2012.0694 930.3806,-1962 930.3806,-1962 930.3806,-1962 930.3806,-1890 930.3806,-1845.829 904.4001,-1800.3999 885.0399,-1772.6791"/>
<polygon fill="#000000" stroke="#000000" points="887.7101,-1770.3975 879.0281,-1764.3251 882.0284,-1774.4863 887.7101,-1770.3975"/>
</g>
<!-- hz&#45;&gt;ls -->
<g id="edge37" class="edge">
<title>hz-&gt;ls</title>
<path fill="none" stroke="#000000" d="M78.4564,-815.5295C88.1282,-819.1826 99.3551,-824.0135 109.3806,-828 143.6191,-841.6145 182.803,-855.9477 210.766,-866.4232"/>
<polygon fill="#000000" stroke="#000000" points="209.5705,-869.7129 220.1624,-869.9602 212.0365,-863.1616 209.5705,-869.7129"/>
</g>
<!-- hz&#45;&gt;fv -->
<g id="edge38" class="edge">
<title>hz-&gt;fv</title>
<path fill="none" stroke="#000000" d="M70.0752,-799.0647C82.4284,-787.5137 102.0909,-769.128 116.6163,-755.5458"/>
<polygon fill="#000000" stroke="#000000" points="119.1647,-757.9547 124.0784,-748.5683 114.3837,-752.8417 119.1647,-757.9547"/>
</g>
<!-- dt -->
<g id="node22" class="node">
<title>dt</title>
<polygon fill="none" stroke="#000000" points="409.3806,-900 382.3806,-882 409.3806,-864 436.3806,-882 409.3806,-900"/>
<text text-anchor="middle" x="409.3806" y="-877.8" font-family="Times,serif" font-size="14.00" fill="#000000">dt</text>
</g>
<!-- dt&#45;&gt;fs -->
<g id="edge39" class="edge">
<title>dt-&gt;fs</title>
<path fill="none" stroke="#000000" d="M416.932,-895.4215C430.2178,-920.3346 456.3806,-975.771 456.3806,-1026 456.3806,-1530 456.3806,-1530 456.3806,-1530 456.3806,-1599.6791 372.2805,-1642.4483 322.0381,-1661.7819"/>
<polygon fill="#000000" stroke="#000000" points="320.6294,-1658.5715 312.476,-1665.3372 323.0689,-1665.1327 320.6294,-1658.5715"/>
</g>
<!-- gg -->
<g id="node23" class="node">
<title>gg</title>
<polygon fill="none" stroke="#000000" points="213.3806,-2196 184.3488,-2178 213.3806,-2160 242.4124,-2178 213.3806,-2196"/>
<text text-anchor="middle" x="213.3806" y="-2173.8" font-family="Times,serif" font-size="14.00" fill="#000000">gg</text>
</g>
<!-- gg&#45;&gt;vg -->
<g id="edge41" class="edge">
<title>gg-&gt;vg</title>
<path fill="none" stroke="#000000" d="M222.8802,-2165.7862C231.1964,-2155.094 243.4536,-2139.3347 253.296,-2126.6802"/>
<polygon fill="#000000" stroke="#000000" points="256.2694,-2128.5581 259.6461,-2118.5157 250.7439,-2124.2605 256.2694,-2128.5581"/>
</g>
<!-- gg&#45;&gt;sf -->
<g id="edge40" class="edge">
<title>gg-&gt;sf</title>
<path fill="none" stroke="#000000" d="M209.8957,-2162.1087C204.4106,-2135.6667 194.3806,-2080.903 194.3806,-2034 194.3806,-2034 194.3806,-2034 194.3806,-1890 194.3806,-1820.3209 278.4806,-1777.5517 328.723,-1758.2181"/>
<polygon fill="#000000" stroke="#000000" points="330.1318,-1761.4285 338.2851,-1754.6628 327.6923,-1754.8673 330.1318,-1761.4285"/>
</g>
<!-- fh -->
<g id="node50" class="node">
<title>fh</title>
<polygon fill="none" stroke="#000000" points="287.3806,-1980 260.3806,-1962 287.3806,-1944 314.3806,-1962 287.3806,-1980"/>
<text text-anchor="middle" x="287.3806" y="-1957.8" font-family="Times,serif" font-size="14.00" fill="#000000">fh</text>
</g>
<!-- xl&#45;&gt;fh -->
<g id="edge42" class="edge">
<title>xl-&gt;fh</title>
<path fill="none" stroke="#000000" d="M273.2863,-2018.3771C275.5507,-2009.3195 278.4566,-1997.6958 281.041,-1987.3584"/>
<polygon fill="#000000" stroke="#000000" points="284.4525,-1988.1428 283.4825,-1977.5924 277.6615,-1986.445 284.4525,-1988.1428"/>
</g>
<!-- pq -->
<g id="node25" class="node">
<title>pq</title>
<polygon fill="none" stroke="#000000" points="538.3806,-1476 484.3806,-1476 484.3806,-1440 538.3806,-1440 538.3806,-1476"/>
<text text-anchor="middle" x="511.3806" y="-1453.8" font-family="Times,serif" font-size="14.00" fill="#000000">pq</text>
</g>
<!-- vr -->
<g id="node57" class="node">
<title>vr</title>
<polygon fill="none" stroke="#000000" points="574.3806,-756 520.3806,-756 520.3806,-720 574.3806,-720 574.3806,-756"/>
<text text-anchor="middle" x="547.3806" y="-733.8" font-family="Times,serif" font-size="14.00" fill="#000000">vr</text>
</g>
<!-- pq&#45;&gt;vr -->
<g id="edge43" class="edge">
<title>pq-&gt;vr</title>
<path fill="none" stroke="#000000" d="M514.903,-1439.8955C519.8824,-1412.6824 528.3806,-1359.5642 528.3806,-1314 528.3806,-1314 528.3806,-1314 528.3806,-882 528.3806,-841.5282 535.8486,-795.2037 541.4206,-766.2725"/>
<polygon fill="#000000" stroke="#000000" points="544.9289,-766.5746 543.4438,-756.0844 538.0629,-765.2111 544.9289,-766.5746"/>
</g>
<!-- mv -->
<g id="node35" class="node">
<title>mv</title>
<polygon fill="none" stroke="#000000" points="193.3806,-2340 160.26,-2322 193.3806,-2304 226.5012,-2322 193.3806,-2340"/>
<text text-anchor="middle" x="193.3806" y="-2317.8" font-family="Times,serif" font-size="14.00" fill="#000000">mv</text>
</g>
<!-- jx&#45;&gt;mv -->
<g id="edge44" class="edge">
<title>jx-&gt;mv</title>
<path fill="none" stroke="#000000" d="M424.1786,-2388.4698C381.3022,-2376.1214 277.4233,-2346.2043 224.9018,-2331.0781"/>
<polygon fill="#000000" stroke="#000000" points="225.6936,-2327.6639 215.1155,-2328.2597 223.7563,-2334.3905 225.6936,-2327.6639"/>
</g>
<!-- kr -->
<g id="node27" class="node">
<title>kr</title>
<polygon fill="none" stroke="#000000" points="193.3806,-2268 166.3806,-2250 193.3806,-2232 220.3806,-2250 193.3806,-2268"/>
<text text-anchor="middle" x="193.3806" y="-2245.8" font-family="Times,serif" font-size="14.00" fill="#000000">kr</text>
</g>
<!-- kr&#45;&gt;gg -->
<g id="edge45" class="edge">
<title>kr-&gt;gg</title>
<path fill="none" stroke="#000000" d="M197.6221,-2234.7307C200.1332,-2225.6905 203.3793,-2214.0047 206.2721,-2203.5904"/>
<polygon fill="#000000" stroke="#000000" points="209.7028,-2204.317 209.007,-2193.7451 202.9581,-2202.4435 209.7028,-2204.317"/>
</g>
<!-- bn -->
<g id="node28" class="node">
<title>bn</title>
<polygon fill="none" stroke="#000000" points="323.3806,-180 294.3488,-162 323.3806,-144 352.4124,-162 323.3806,-180"/>
<text text-anchor="middle" x="323.3806" y="-157.8" font-family="Times,serif" font-size="14.00" fill="#000000">bn</text>
</g>
<!-- bn&#45;&gt;ls -->
<g id="edge47" class="edge">
<title>bn-&gt;ls</title>
<path fill="none" stroke="#000000" d="M326.8655,-177.8913C332.3506,-204.3333 342.3806,-259.097 342.3806,-306 342.3806,-738 342.3806,-738 342.3806,-738 342.3806,-785.9088 305.2893,-830.1688 277.4596,-856.6346"/>
<polygon fill="#000000" stroke="#000000" points="274.8698,-854.2618 269.8943,-863.6157 279.617,-859.4062 274.8698,-854.2618"/>
</g>
<!-- bn&#45;&gt;px -->
<g id="edge46" class="edge">
<title>bn-&gt;px</title>
<path fill="none" stroke="#000000" d="M330.7074,-148.1177C335.9644,-138.1571 343.1679,-124.5083 349.2731,-112.9405"/>
<polygon fill="#000000" stroke="#000000" points="352.504,-114.3172 354.0763,-103.8397 346.3133,-111.0499 352.504,-114.3172"/>
</g>
<!-- fs&#45;&gt;mh -->
<g id="edge50" class="edge">
<title>fs-&gt;mh</title>
<path fill="none" stroke="#000000" d="M258.0951,-1657.4405C243.8101,-1647.8041 226.7651,-1634.6761 214.3806,-1620 197.8061,-1600.3587 184.8661,-1573.8979 176.7966,-1554.756"/>
<polygon fill="#000000" stroke="#000000" points="179.9317,-1553.1737 172.925,-1545.2265 173.4465,-1555.8085 179.9317,-1553.1737"/>
</g>
<!-- fs&#45;&gt;pq -->
<g id="edge53" class="edge">
<title>fs-&gt;pq</title>
<path fill="none" stroke="#000000" d="M312.6173,-1669.451C358.5329,-1661.2469 448.4887,-1642.6973 470.3806,-1620 505.334,-1583.7607 511.7388,-1522.2053 512.2386,-1486.3127"/>
<polygon fill="#000000" stroke="#000000" points="515.7384,-1486.0507 512.2292,-1476.054 508.7385,-1486.0572 515.7384,-1486.0507"/>
</g>
<!-- rg -->
<g id="node38" class="node">
<title>rg</title>
<polygon fill="none" stroke="#000000" points="249.3806,-1404 222.3806,-1386 249.3806,-1368 276.3806,-1386 249.3806,-1404"/>
<text text-anchor="middle" x="249.3806" y="-1381.8" font-family="Times,serif" font-size="14.00" fill="#000000">rg</text>
</g>
<!-- fs&#45;&gt;rg -->
<g id="edge54" class="edge">
<title>fs-&gt;rg</title>
<path fill="none" stroke="#000000" d="M283.1286,-1655.9843C277.0116,-1607.0479 260.0599,-1471.4346 252.7772,-1413.1727"/>
<polygon fill="#000000" stroke="#000000" points="256.2085,-1412.4043 251.495,-1402.9156 249.2625,-1413.2726 256.2085,-1412.4043"/>
</g>
<!-- pj -->
<g id="node39" class="node">
<title>pj</title>
<polygon fill="none" stroke="#000000" points="97.3806,-1620 70.3806,-1602 97.3806,-1584 124.3806,-1602 97.3806,-1620"/>
<text text-anchor="middle" x="97.3806" y="-1597.8" font-family="Times,serif" font-size="14.00" fill="#000000">pj</text>
</g>
<!-- fs&#45;&gt;pj -->
<g id="edge52" class="edge">
<title>fs-&gt;pj</title>
<path fill="none" stroke="#000000" d="M258.3667,-1664.6393C228.7343,-1654.2408 179.8672,-1636.7083 138.3806,-1620 133.3712,-1617.9825 128.0614,-1615.7345 122.9831,-1613.5296"/>
<polygon fill="#000000" stroke="#000000" points="124.205,-1610.2434 113.6426,-1609.4148 121.3829,-1616.6493 124.205,-1610.2434"/>
</g>
<!-- fs&#45;&gt;jb -->
<g id="edge49" class="edge">
<title>fs-&gt;jb</title>
<path fill="none" stroke="#000000" d="M272.3212,-1655.751C265.5711,-1645.6197 257.6636,-1632.5579 252.3806,-1620 233.1765,-1574.351 221.3533,-1517.5496 215.6065,-1484.7659"/>
<polygon fill="#000000" stroke="#000000" points="219.009,-1483.8949 213.8887,-1474.6195 212.1072,-1485.0635 219.009,-1483.8949"/>
</g>
<!-- nk -->
<g id="node45" class="node">
<title>nk</title>
<polygon fill="none" stroke="#000000" points="202.3806,-1764 173.3488,-1746 202.3806,-1728 231.4124,-1746 202.3806,-1764"/>
<text text-anchor="middle" x="202.3806" y="-1741.8" font-family="Times,serif" font-size="14.00" fill="#000000">nk</text>
</g>
<!-- fs&#45;&gt;nk -->
<g id="edge51" class="edge">
<title>fs-&gt;nk</title>
<path fill="none" stroke="#000000" d="M270.407,-1692.1512C257.8262,-1704.0739 239.9444,-1719.4933 225.5626,-1730.7747"/>
<polygon fill="#000000" stroke="#000000" points="223.3894,-1728.0304 217.5658,-1736.8812 227.6377,-1733.5938 223.3894,-1728.0304"/>
</g>
<!-- fs&#45;&gt;pm -->
<g id="edge48" class="edge">
<title>fs-&gt;pm</title>
<path fill="none" stroke="#000000" d="M297.7487,-1655.8166C314.5129,-1629.3548 342.3806,-1578.1283 342.3806,-1530 342.3806,-1530 342.3806,-1530 342.3806,-1386 342.3806,-1342.6326 325.697,-1294.3933 314.1537,-1266.207"/>
<polygon fill="#000000" stroke="#000000" points="317.2865,-1264.6285 310.1739,-1256.776 310.8372,-1267.35 317.2865,-1264.6285"/>
</g>
<!-- vn&#45;&gt;fs -->
<g id="edge56" class="edge">
<title>vn-&gt;fs</title>
<path fill="none" stroke="#000000" d="M364.8655,-1113.8913C370.3506,-1140.3333 380.3806,-1195.097 380.3806,-1242 380.3806,-1530 380.3806,-1530 380.3806,-1530 380.3806,-1577.9088 343.2893,-1622.1688 315.4596,-1648.6346"/>
<polygon fill="#000000" stroke="#000000" points="312.8698,-1646.2618 307.8943,-1655.6157 317.617,-1651.4062 312.8698,-1646.2618"/>
</g>
<!-- rt -->
<g id="node33" class="node">
<title>rt</title>
<polygon fill="none" stroke="#000000" points="380.3806,-1044 353.3806,-1026 380.3806,-1008 407.3806,-1026 380.3806,-1044"/>
<text text-anchor="middle" x="380.3806" y="-1021.8" font-family="Times,serif" font-size="14.00" fill="#000000">rt</text>
</g>
<!-- vn&#45;&gt;rt -->
<g id="edge55" class="edge">
<title>vn-&gt;rt</title>
<path fill="none" stroke="#000000" d="M365.5033,-1082.3771C367.8935,-1073.3195 370.9609,-1061.6958 373.6888,-1051.3584"/>
<polygon fill="#000000" stroke="#000000" points="377.0985,-1052.1545 376.2659,-1041.5924 370.3302,-1050.3684 377.0985,-1052.1545"/>
</g>
<!-- jt&#45;&gt;tx -->
<g id="edge57" class="edge">
<title>jt-&gt;tx</title>
<path fill="none" stroke="#000000" d="M846.5324,-2022.3042C838.184,-2011.8362 826.4692,-1995.7527 819.3806,-1980 786.2113,-1906.2889 757.4755,-1872.4179 793.3806,-1800 800.8858,-1784.8625 814.8895,-1772.8196 828.4895,-1763.983"/>
<polygon fill="#000000" stroke="#000000" points="830.5627,-1766.819 837.2959,-1758.6389 826.9311,-1760.8347 830.5627,-1766.819"/>
</g>
<!-- zb -->
<g id="node53" class="node">
<title>zb</title>
<polygon fill="none" stroke="#000000" points="856.3806,-1980 827.883,-1962 856.3806,-1944 884.8782,-1962 856.3806,-1980"/>
<text text-anchor="middle" x="856.3806" y="-1957.8" font-family="Times,serif" font-size="14.00" fill="#000000">zb</text>
</g>
<!-- jt&#45;&gt;zb -->
<g id="edge58" class="edge">
<title>jt-&gt;zb</title>
<path fill="none" stroke="#000000" d="M856.3806,-2015.8314C856.3806,-2008.131 856.3806,-1998.9743 856.3806,-1990.4166"/>
<polygon fill="#000000" stroke="#000000" points="859.8807,-1990.4132 856.3806,-1980.4133 852.8807,-1990.4133 859.8807,-1990.4132"/>
</g>
<!-- fx&#45;&gt;ls -->
<g id="edge64" class="edge">
<title>fx-&gt;ls</title>
<path fill="none" stroke="#000000" d="M206.2993,-381.2938C149.4318,-391.1509 2.3806,-425.9282 2.3806,-522 2.3806,-738 2.3806,-738 2.3806,-738 2.3806,-778.8816 -7.1418,-798.7121 21.3806,-828 47.2802,-854.5948 152.749,-870.8603 209.992,-877.9029"/>
<polygon fill="#000000" stroke="#000000" points="209.7443,-881.3982 220.0893,-879.111 210.5759,-874.4478 209.7443,-881.3982"/>
</g>
<!-- fx&#45;&gt;sk -->
<g id="edge63" class="edge">
<title>fx-&gt;sk</title>
<path fill="none" stroke="#000000" d="M237.9581,-366.1107C246.7208,-355.2329 259.862,-338.9196 270.2444,-326.0311"/>
<polygon fill="#000000" stroke="#000000" points="273.0473,-328.1309 276.595,-318.1477 267.596,-323.7395 273.0473,-328.1309"/>
</g>
<!-- rt&#45;&gt;fs -->
<g id="edge65" class="edge">
<title>rt-&gt;fs</title>
<path fill="none" stroke="#000000" d="M386.6555,-1039.9828C397.4486,-1065.3481 418.3806,-1120.8739 418.3806,-1170 418.3806,-1530 418.3806,-1530 418.3806,-1530 418.3806,-1587.1833 361.0823,-1631.3377 321.7028,-1654.9312"/>
<polygon fill="#000000" stroke="#000000" points="319.5079,-1652.1583 312.6161,-1660.2053 323.0218,-1658.2125 319.5079,-1652.1583"/>
</g>
<!-- kz -->
<g id="node40" class="node">
<title>kz</title>
<polygon fill="none" stroke="#000000" points="380.3806,-972 351.883,-954 380.3806,-936 408.8782,-954 380.3806,-972"/>
<text text-anchor="middle" x="380.3806" y="-949.8" font-family="Times,serif" font-size="14.00" fill="#000000">kz</text>
</g>
<!-- rt&#45;&gt;kz -->
<g id="edge66" class="edge">
<title>rt-&gt;kz</title>
<path fill="none" stroke="#000000" d="M380.3806,-1007.8314C380.3806,-1000.131 380.3806,-990.9743 380.3806,-982.4166"/>
<polygon fill="#000000" stroke="#000000" points="383.8807,-982.4132 380.3806,-972.4133 376.8807,-982.4133 383.8807,-982.4132"/>
</g>
<!-- gk&#45;&gt;jh -->
<g id="edge68" class="edge">
<title>gk-&gt;jh</title>
<path fill="none" stroke="#000000" d="M1005.9809,-2531.7364C966.3778,-2518.9498 876.1075,-2489.8042 830.2407,-2474.9952"/>
<polygon fill="#000000" stroke="#000000" points="831.2287,-2471.6363 820.637,-2471.8944 829.0779,-2478.2977 831.2287,-2471.6363"/>
</g>
<!-- gk&#45;&gt;tx -->
<g id="edge67" class="edge">
<title>gk-&gt;tx</title>
<path fill="none" stroke="#000000" d="M1028.8655,-2522.1087C1034.3506,-2495.6667 1044.3806,-2440.903 1044.3806,-2394 1044.3806,-2394 1044.3806,-2394 1044.3806,-1890 1044.3806,-1817.4388 954.0869,-1775.427 901.4023,-1757.0897"/>
<polygon fill="#000000" stroke="#000000" points="902.3127,-1753.7035 891.7187,-1753.8375 900.084,-1760.3392 902.3127,-1753.7035"/>
</g>
<!-- mv&#45;&gt;kr -->
<g id="edge70" class="edge">
<title>mv-&gt;kr</title>
<path fill="none" stroke="#000000" d="M193.3806,-2303.8314C193.3806,-2296.131 193.3806,-2286.9743 193.3806,-2278.4166"/>
<polygon fill="#000000" stroke="#000000" points="196.8807,-2278.4132 193.3806,-2268.4133 189.8807,-2278.4133 196.8807,-2278.4132"/>
</g>
<!-- mv&#45;&gt;sf -->
<g id="edge69" class="edge">
<title>mv-&gt;sf</title>
<path fill="none" stroke="#000000" d="M181.9897,-2310.0136C161.0087,-2286.622 118.3806,-2232.4021 118.3806,-2178 118.3806,-2178 118.3806,-2178 118.3806,-1890 118.3806,-1844.0242 133.1177,-1828.2627 169.3806,-1800 194.0714,-1780.7564 278.6477,-1762.2545 328.2656,-1752.7056"/>
<polygon fill="#000000" stroke="#000000" points="329.115,-1756.1071 338.2888,-1750.8068 327.812,-1749.2294 329.115,-1756.1071"/>
</g>
<!-- bz&#45;&gt;bn -->
<g id="edge71" class="edge">
<title>bz-&gt;bn</title>
<path fill="none" stroke="#000000" d="M293.5146,-220.1177C298.6332,-210.1571 305.6472,-196.5083 311.5917,-184.9405"/>
<polygon fill="#000000" stroke="#000000" points="314.8108,-186.3338 316.2685,-175.8397 308.5848,-183.1343 314.8108,-186.3338"/>
</g>
<!-- dv&#45;&gt;ls -->
<g id="edge73" class="edge">
<title>dv-&gt;ls</title>
<path fill="none" stroke="#000000" d="M394.432,-32.9347C402.7407,-58.8698 418.3806,-114.0564 418.3806,-162 418.3806,-738 418.3806,-738 418.3806,-738 418.3806,-807.6791 334.2805,-850.4483 284.0381,-869.7819"/>
<polygon fill="#000000" stroke="#000000" points="282.6294,-866.5715 274.476,-873.3372 285.0689,-873.1327 282.6294,-866.5715"/>
</g>
<!-- rg&#45;&gt;jz -->
<g id="edge74" class="edge">
<title>rg-&gt;jz</title>
<path fill="none" stroke="#000000" d="M256.5281,-1372.4574C261.8888,-1362.3002 269.3455,-1348.1718 275.5852,-1336.3492"/>
<polygon fill="#000000" stroke="#000000" points="278.6928,-1337.9595 280.2651,-1327.4819 272.5021,-1334.6921 278.6928,-1337.9595"/>
</g>
<!-- pj&#45;&gt;mh -->
<g id="edge75" class="edge">
<title>pj-&gt;mh</title>
<path fill="none" stroke="#000000" d="M108.0121,-1591.0647C118.7546,-1580.0153 135.5774,-1562.7119 148.5765,-1549.3414"/>
<polygon fill="#000000" stroke="#000000" points="151.2521,-1551.6103 155.7134,-1542.0005 146.2331,-1546.7307 151.2521,-1551.6103"/>
</g>
<!-- kz&#45;&gt;ls -->
<g id="edge72" class="edge">
<title>kz-&gt;ls</title>
<path fill="none" stroke="#000000" d="M364.8635,-945.5998C345.0648,-934.8817 310.1981,-916.0065 283.575,-901.594"/>
<polygon fill="#000000" stroke="#000000" points="285.0005,-898.3857 274.5401,-896.7029 281.6679,-904.5416 285.0005,-898.3857"/>
</g>
<!-- kz&#45;&gt;dt -->
<g id="edge76" class="edge">
<title>kz-&gt;dt</title>
<path fill="none" stroke="#000000" d="M386.2492,-939.4297C390.1013,-929.8658 395.2313,-917.1292 399.6813,-906.0809"/>
<polygon fill="#000000" stroke="#000000" points="403.0311,-907.1321 403.5207,-896.5486 396.538,-904.5168 403.0311,-907.1321"/>
</g>
<!-- hg -->
<g id="node52" class="node">
<title>hg</title>
<polygon fill="none" stroke="#000000" points="190.3806,-612 161.3488,-594 190.3806,-576 219.4124,-594 190.3806,-612"/>
<text text-anchor="middle" x="190.3806" y="-589.8" font-family="Times,serif" font-size="14.00" fill="#000000">hg</text>
</g>
<!-- ck&#45;&gt;hg -->
<g id="edge78" class="edge">
<title>ck-&gt;hg</title>
<path fill="none" stroke="#000000" d="M176.2863,-650.3771C178.5507,-641.3195 181.4566,-629.6958 184.041,-619.3584"/>
<polygon fill="#000000" stroke="#000000" points="187.4525,-620.1428 186.4825,-609.5924 180.6615,-618.445 187.4525,-620.1428"/>
</g>
<!-- fg&#45;&gt;vr -->
<g id="edge79" class="edge">
<title>fg-&gt;vr</title>
<path fill="none" stroke="#000000" d="M492.0539,-791.8314C500.9055,-783.219 511.6292,-772.7851 521.2701,-763.4048"/>
<polygon fill="#000000" stroke="#000000" points="523.9867,-765.645 528.7132,-756.1628 519.1052,-760.6279 523.9867,-765.645"/>
</g>
<!-- sf&#45;&gt;pk -->
<g id="edge80" class="edge">
<title>sf-&gt;pk</title>
<path fill="none" stroke="#000000" d="M392.476,-1754.6628C440.6934,-1771.9688 536.3806,-1815.6756 536.3806,-1890 536.3806,-2394 536.3806,-2394 536.3806,-2394 536.3806,-2435.5898 528.4943,-2483.3602 522.8834,-2512.0848"/>
<polygon fill="#000000" stroke="#000000" points="519.4079,-2511.6146 520.8655,-2522.1087 526.2702,-2512.9961 519.4079,-2511.6146"/>
</g>
<!-- sf&#45;&gt;ql -->
<g id="edge82" class="edge">
<title>sf-&gt;ql</title>
<path fill="none" stroke="#000000" d="M392.6161,-1759.7947C431.527,-1781.6664 498.3806,-1828.2323 498.3806,-1890 498.3806,-2322 498.3806,-2322 498.3806,-2322 498.3806,-2363.2955 491.4001,-2410.7959 486.3853,-2439.5925"/>
<polygon fill="#000000" stroke="#000000" points="482.8998,-2439.2004 484.5782,-2449.6614 489.7897,-2440.437 482.8998,-2439.2004"/>
</g>
<!-- sf&#45;&gt;xl -->
<g id="edge83" class="edge">
<title>sf-&gt;xl</title>
<path fill="none" stroke="#000000" d="M338.341,-1760.775C323.4111,-1770.2 305.6611,-1783.7 294.3806,-1800 247.5739,-1867.6341 238.2054,-1898.811 251.3806,-1980 253.0313,-1990.1721 256.324,-2001.0174 259.647,-2010.2996"/>
<polygon fill="#000000" stroke="#000000" points="256.374,-2011.5398 263.1885,-2019.6524 262.9204,-2009.0609 256.374,-2011.5398"/>
</g>
<!-- sf&#45;&gt;jx -->
<g id="edge86" class="edge">
<title>sf-&gt;jx</title>
<path fill="none" stroke="#000000" d="M389.1388,-1764.0352C400.6512,-1773.7125 413.9827,-1786.4261 423.3806,-1800 447.999,-1835.5578 460.3806,-1846.7517 460.3806,-1890 460.3806,-2250 460.3806,-2250 460.3806,-2250 460.3806,-2291.2955 453.4001,-2338.7959 448.3853,-2367.5925"/>
<polygon fill="#000000" stroke="#000000" points="444.8998,-2367.2004 446.5782,-2377.6614 451.7897,-2368.437 444.8998,-2367.2004"/>
</g>
<!-- sf&#45;&gt;kr -->
<g id="edge84" class="edge">
<title>sf-&gt;kr</title>
<path fill="none" stroke="#000000" d="M338.1836,-1749.8341C305.1142,-1755.6826 249.06,-1769.5457 211.3806,-1800 174.9223,-1829.4673 156.3806,-1843.1222 156.3806,-1890 156.3806,-2106 156.3806,-2106 156.3806,-2106 156.3806,-2149.6789 172.5472,-2198.532 183.5078,-2226.6341"/>
<polygon fill="#000000" stroke="#000000" points="180.2951,-2228.0262 187.2708,-2236.0006 186.7905,-2225.4166 180.2951,-2228.0262"/>
</g>
<!-- sf&#45;&gt;fs -->
<g id="edge77" class="edge">
<title>sf-&gt;fs</title>
<path fill="none" stroke="#000000" d="M345.1932,-1727.8314C335.5292,-1719.1337 323.801,-1708.5783 313.299,-1699.1265"/>
<polygon fill="#000000" stroke="#000000" points="315.3359,-1696.251 305.5615,-1692.1628 310.6531,-1701.454 315.3359,-1696.251"/>
</g>
<!-- dk -->
<g id="node46" class="node">
<title>dk</title>
<polygon fill="none" stroke="#000000" points="588.3806,-1620 534.3806,-1620 534.3806,-1584 588.3806,-1584 588.3806,-1620"/>
<text text-anchor="middle" x="561.3806" y="-1597.8" font-family="Times,serif" font-size="14.00" fill="#000000">dk</text>
</g>
<!-- sf&#45;&gt;dk -->
<g id="edge81" class="edge">
<title>sf-&gt;dk</title>
<path fill="none" stroke="#000000" d="M390.2041,-1727.7623C425.2547,-1702.0108 489.3206,-1654.942 528.355,-1626.2637"/>
<polygon fill="#000000" stroke="#000000" points="530.7721,-1628.831 536.7586,-1620.0896 526.6275,-1623.1898 530.7721,-1628.831"/>
</g>
<!-- nv -->
<g id="node49" class="node">
<title>nv</title>
<polygon fill="none" stroke="#000000" points="550.3806,-2628 521.3488,-2610 550.3806,-2592 579.4124,-2610 550.3806,-2628"/>
<text text-anchor="middle" x="550.3806" y="-2605.8" font-family="Times,serif" font-size="14.00" fill="#000000">nv</text>
</g>
<!-- sf&#45;&gt;nv -->
<g id="edge85" class="edge">
<title>sf-&gt;nv</title>
<path fill="none" stroke="#000000" d="M392.7106,-1749.8765C453.269,-1760.789 592.3806,-1797.2414 592.3806,-1890 592.3806,-2466 592.3806,-2466 592.3806,-2466 592.3806,-2510.5435 577.1929,-2560.9236 564.6142,-2588.7207"/>
<polygon fill="#000000" stroke="#000000" points="561.3805,-2587.3664 560.131,-2597.8873 567.6687,-2590.4419 561.3805,-2587.3664"/>
</g>
<!-- jb&#45;&gt;rg -->
<g id="edge87" class="edge">
<title>jb-&gt;rg</title>
<path fill="none" stroke="#000000" d="M218.5281,-1444.4574C223.8888,-1434.3002 231.3455,-1420.1718 237.5852,-1408.3492"/>
<polygon fill="#000000" stroke="#000000" points="240.6928,-1409.9595 242.2651,-1399.4819 234.5021,-1406.6921 240.6928,-1409.9595"/>
</g>
<!-- nk&#45;&gt;fs -->
<g id="edge88" class="edge">
<title>nk-&gt;fs</title>
<path fill="none" stroke="#000000" d="M211.5712,-1733.4586C221.2507,-1723.8041 236.5894,-1710.1627 250.8474,-1698.381"/>
<polygon fill="#000000" stroke="#000000" points="253.0647,-1701.0891 258.6145,-1692.0641 248.648,-1695.6584 253.0647,-1701.0891"/>
</g>
<!-- nk&#45;&gt;pj -->
<g id="edge89" class="edge">
<title>nk-&gt;pj</title>
<path fill="none" stroke="#000000" d="M193.2462,-1733.4729C175.0816,-1708.5614 134.279,-1652.6036 112.2165,-1622.3464"/>
<polygon fill="#000000" stroke="#000000" points="114.9904,-1620.21 106.2706,-1614.192 109.3343,-1624.3342 114.9904,-1620.21"/>
</g>
<!-- dk&#45;&gt;vr -->
<g id="edge90" class="edge">
<title>dk-&gt;vr</title>
<path fill="none" stroke="#000000" d="M562.4166,-1583.8216C563.8811,-1556.5143 566.3806,-1503.2773 566.3806,-1458 566.3806,-1458 566.3806,-1458 566.3806,-882 566.3806,-841.5282 558.9126,-795.2037 553.3406,-766.2725"/>
<polygon fill="#000000" stroke="#000000" points="556.6982,-765.2111 551.3174,-756.0844 549.8323,-766.5746 556.6982,-765.2111"/>
</g>
<!-- hp&#45;&gt;sf -->
<g id="edge91" class="edge">
<title>hp-&gt;sf</title>
<path fill="none" stroke="#000000" d="M365.3806,-1799.8314C365.3806,-1792.131 365.3806,-1782.9743 365.3806,-1774.4166"/>
<polygon fill="#000000" stroke="#000000" points="368.8807,-1774.4132 365.3806,-1764.4133 361.8807,-1774.4133 368.8807,-1774.4132"/>
</g>
<!-- tx&#45;&gt;cj -->
<g id="edge94" class="edge">
<title>tx-&gt;cj</title>
<path fill="none" stroke="#000000" d="M891.4239,-1758.2646C932.6239,-1779.0193 1006.3806,-1825.2208 1006.3806,-1890 1006.3806,-2178 1006.3806,-2178 1006.3806,-2178 1006.3806,-2230.4695 963.0955,-2279.7902 936.8983,-2304.8354"/>
<polygon fill="#000000" stroke="#000000" points="934.3353,-2302.4388 929.3835,-2311.8053 939.0955,-2307.5712 934.3353,-2302.4388"/>
</g>
<!-- tx&#45;&gt;pr -->
<g id="edge93" class="edge">
<title>tx-&gt;pr</title>
<path fill="none" stroke="#000000" d="M837.2194,-1756.1631C792.0449,-1775.0335 706.3806,-1820.0405 706.3806,-1890 706.3806,-2034 706.3806,-2034 706.3806,-2034 706.3806,-2109.1628 803.7209,-2152.1725 853.6201,-2169.2825"/>
<polygon fill="#000000" stroke="#000000" points="852.6172,-2172.6372 863.2105,-2172.4521 854.8139,-2165.9908 852.6172,-2172.6372"/>
</g>
<!-- tx&#45;&gt;hr -->
<g id="edge92" class="edge">
<title>tx-&gt;hr</title>
<path fill="none" stroke="#000000" d="M891.7404,-1749.4036C954.1058,-1759.3703 1100.3806,-1794.0923 1100.3806,-1890 1100.3806,-2466 1100.3806,-2466 1100.3806,-2466 1100.3806,-2510.7719 1085.0367,-2561.4405 1072.4209,-2589.1466"/>
<polygon fill="#000000" stroke="#000000" points="1069.21,-2587.7445 1067.9299,-2598.2617 1075.4893,-2590.8383 1069.21,-2587.7445"/>
</g>
<!-- tx&#45;&gt;kx -->
<g id="edge95" class="edge">
<title>tx-&gt;kx</title>
<path fill="none" stroke="#000000" d="M837.1176,-1750.634C806.109,-1757.0875 755.383,-1771.3702 721.3806,-1800 685.8711,-1829.8988 668.3806,-1843.5795 668.3806,-1890 668.3806,-2250 668.3806,-2250 668.3806,-2250 668.3806,-2312.9637 737.8877,-2359.9268 776.7817,-2381.2771"/>
<polygon fill="#000000" stroke="#000000" points="775.4763,-2384.5468 785.9496,-2386.1475 778.7604,-2378.365 775.4763,-2384.5468"/>
</g>
<!-- fm -->
<g id="node54" class="node">
<title>fm</title>
<polygon fill="none" stroke="#000000" points="756.3806,-1548 702.3806,-1548 702.3806,-1512 756.3806,-1512 756.3806,-1548"/>
<text text-anchor="middle" x="729.3806" y="-1525.8" font-family="Times,serif" font-size="14.00" fill="#000000">fm</text>
</g>
<!-- tx&#45;&gt;fm -->
<g id="edge96" class="edge">
<title>tx-&gt;fm</title>
<path fill="none" stroke="#000000" d="M853.1028,-1727.9555C829.3289,-1689.9173 773.97,-1601.3431 746.076,-1556.7127"/>
<polygon fill="#000000" stroke="#000000" points="748.9893,-1554.7701 740.7213,-1548.1451 743.0533,-1558.4801 748.9893,-1554.7701"/>
</g>
<!-- nv&#45;&gt;pk -->
<g id="edge97" class="edge">
<title>nv-&gt;pk</title>
<path fill="none" stroke="#000000" d="M543.8609,-2595.7751C539.3862,-2586.0123 533.3431,-2572.8272 528.1596,-2561.5179"/>
<polygon fill="#000000" stroke="#000000" points="531.2351,-2559.8277 523.8868,-2552.1953 524.8717,-2562.7443 531.2351,-2559.8277"/>
</g>
<!-- nv&#45;&gt;sf -->
<g id="edge98" class="edge">
<title>nv-&gt;sf</title>
<path fill="none" stroke="#000000" d="M551.2926,-2592.5607C557.7013,-2565.7688 574.3806,-2512.6795 574.3806,-2466 574.3806,-2466 574.3806,-2466 574.3806,-1890 574.3806,-1806.8164 462.5062,-1768.9145 402.3529,-1754.106"/>
<polygon fill="#000000" stroke="#000000" points="403.0015,-1750.6629 392.464,-1751.7636 401.3879,-1757.4744 403.0015,-1750.6629"/>
</g>
<!-- fh&#45;&gt;xv -->
<g id="edge99" class="edge">
<title>fh-&gt;xv</title>
<path fill="none" stroke="#000000" d="M294.7172,-1948.7941C300.3409,-1938.6714 308.2339,-1924.4641 314.852,-1912.5514"/>
<polygon fill="#000000" stroke="#000000" points="318.0218,-1914.0528 319.8187,-1903.6114 311.9027,-1910.6532 318.0218,-1914.0528"/>
</g>
<!-- fh&#45;&gt;sf -->
<g id="edge100" class="edge">
<title>fh-&gt;sf</title>
<path fill="none" stroke="#000000" d="M286.0109,-1944.8889C284.9551,-1926.6398 284.4055,-1896.9845 289.3806,-1872 296.0859,-1838.3265 299.4704,-1829.2932 317.3806,-1800 323.4922,-1790.0041 331.5341,-1780.1136 339.2841,-1771.5823"/>
<polygon fill="#000000" stroke="#000000" points="341.9569,-1773.8492 346.2556,-1764.1656 336.8564,-1769.0548 341.9569,-1773.8492"/>
</g>
<!-- xt&#45;&gt;tx -->
<g id="edge101" class="edge">
<title>xt-&gt;tx</title>
<path fill="none" stroke="#000000" d="M842.8444,-1803.4297C846.0341,-1794.9239 850.1649,-1783.9086 853.9544,-1773.8033"/>
<polygon fill="#000000" stroke="#000000" points="857.3485,-1774.7202 857.5826,-1764.128 850.7942,-1772.2623 857.3485,-1774.7202"/>
</g>
<!-- hg&#45;&gt;ls -->
<g id="edge102" class="edge">
<title>hg-&gt;ls</title>
<path fill="none" stroke="#000000" d="M196.2539,-608.4526C200.4293,-619.2061 205.8938,-634.325 209.3806,-648 228.028,-721.1341 239.4588,-809.5636 244.4435,-853.8485"/>
<polygon fill="#000000" stroke="#000000" points="240.9733,-854.3115 245.5455,-863.869 247.9313,-853.5463 240.9733,-854.3115"/>
</g>
<!-- hg&#45;&gt;th -->
<g id="edge103" class="edge">
<title>hg-&gt;th</title>
<path fill="none" stroke="#000000" d="M190.3806,-575.8314C190.3806,-568.131 190.3806,-558.9743 190.3806,-550.4166"/>
<polygon fill="#000000" stroke="#000000" points="193.8807,-550.4132 190.3806,-540.4133 186.8807,-550.4133 193.8807,-550.4132"/>
</g>
<!-- zb&#45;&gt;jk -->
<g id="edge105" class="edge">
<title>zb-&gt;jk</title>
<path fill="none" stroke="#000000" d="M852.2579,-1946.3771C849.8677,-1937.3195 846.8003,-1925.6958 844.0724,-1915.3584"/>
<polygon fill="#000000" stroke="#000000" points="847.431,-1914.3684 841.4953,-1905.5924 840.6627,-1916.1545 847.431,-1914.3684"/>
</g>
<!-- zb&#45;&gt;tx -->
<g id="edge104" class="edge">
<title>zb-&gt;tx</title>
<path fill="none" stroke="#000000" d="M862.2304,-1947.6186C866.2619,-1936.9005 871.2605,-1921.7946 873.3806,-1908 880.6721,-1860.557 877.3397,-1847.8364 873.3806,-1800 872.6861,-1791.6085 871.3944,-1782.5578 870.002,-1774.3092"/>
<polygon fill="#000000" stroke="#000000" points="873.435,-1773.6235 868.2219,-1764.3999 866.5453,-1774.8612 873.435,-1773.6235"/>
</g>
<!-- fm&#45;&gt;vr -->
<g id="edge106" class="edge">
<title>fm-&gt;vr</title>
<path fill="none" stroke="#000000" d="M715.9275,-1511.9776C697.6928,-1485.7117 667.3806,-1434.7216 667.3806,-1386 667.3806,-1386 667.3806,-1386 667.3806,-882 667.3806,-828.8995 618.6286,-784.9881 583.2728,-760.1247"/>
<polygon fill="#000000" stroke="#000000" points="584.8447,-756.9604 574.6104,-754.2199 580.9019,-762.7445 584.8447,-756.9604"/>
</g>
<!-- pm&#45;&gt;hd -->
<g id="edge107" class="edge">
<title>pm-&gt;hd</title>
<path fill="none" stroke="#000000" d="M303.3806,-1223.8314C303.3806,-1216.131 303.3806,-1206.9743 303.3806,-1198.4166"/>
<polygon fill="#000000" stroke="#000000" points="306.8807,-1198.4132 303.3806,-1188.4133 299.8807,-1198.4133 306.8807,-1198.4132"/>
</g>
<!-- fv&#45;&gt;ck -->
<g id="edge108" class="edge">
<title>fv-&gt;ck</title>
<path fill="none" stroke="#000000" d="M142.34,-724.4574C147.4426,-714.528 154.4953,-700.8037 160.4849,-689.1483"/>
<polygon fill="#000000" stroke="#000000" points="163.7423,-690.4671 165.2,-679.973 157.5162,-687.2676 163.7423,-690.4671"/>
</g>
<!-- rx -->
<g id="node59" class="node">
<title>rx</title>
<ellipse fill="none" stroke="#000000" cx="547.3806" cy="-666" rx="27" ry="18"/>
<text text-anchor="middle" x="547.3806" y="-661.8" font-family="Times,serif" font-size="14.00" fill="#000000">rx</text>
</g>
<!-- vr&#45;&gt;rx -->
<g id="edge109" class="edge">
<title>vr-&gt;rx</title>
<path fill="none" stroke="#000000" d="M547.3806,-719.8314C547.3806,-712.131 547.3806,-702.9743 547.3806,-694.4166"/>
<polygon fill="#000000" stroke="#000000" points="550.8807,-694.4132 547.3806,-684.4133 543.8807,-694.4133 550.8807,-694.4132"/>
</g>
<!-- broadcaster -->
<g id="node58" class="node">
<title>broadcaster</title>
<ellipse fill="none" stroke="#000000" cx="298.3806" cy="-2682" rx="55.5753" ry="18"/>
<text text-anchor="middle" x="298.3806" y="-2677.8" font-family="Times,serif" font-size="14.00" fill="#000000">broadcaster</text>
</g>
<!-- broadcaster&#45;&gt;hr -->
<g id="edge62" class="edge">
<title>broadcaster-&gt;hr</title>
<path fill="none" stroke="#000000" d="M351.8223,-2676.9371C498.4279,-2663.0482 903.9992,-2624.6256 1024.3124,-2613.2275"/>
<polygon fill="#000000" stroke="#000000" points="1024.7862,-2616.6984 1034.4115,-2612.2708 1024.1259,-2609.7296 1024.7862,-2616.6984"/>
</g>
<!-- broadcaster&#45;&gt;hz -->
<g id="edge59" class="edge">
<title>broadcaster-&gt;hz</title>
<path fill="none" stroke="#000000" d="M249.2209,-2673.3666C197.2178,-2663.4694 119.4177,-2646.2461 95.3806,-2628 58.406,-2599.9333 42.3806,-2584.4205 42.3806,-2538 42.3806,-2538 42.3806,-2538 42.3806,-954 42.3806,-912.7369 48.9504,-865.2274 53.6703,-836.42"/>
<polygon fill="#000000" stroke="#000000" points="57.1573,-836.7902 55.3711,-826.347 50.255,-835.6247 57.1573,-836.7902"/>
</g>
<!-- broadcaster&#45;&gt;nk -->
<g id="edge61" class="edge">
<title>broadcaster-&gt;nk</title>
<path fill="none" stroke="#000000" d="M250.5396,-2672.6595C186.3677,-2657.0318 80.3806,-2618.9653 80.3806,-2538 80.3806,-2538 80.3806,-2538 80.3806,-1890 80.3806,-1830.1443 142.5021,-1782.3882 178.0881,-1759.9418"/>
<polygon fill="#000000" stroke="#000000" points="180.2207,-1762.7404 186.9292,-1754.54 176.5711,-1756.7671 180.2207,-1762.7404"/>
</g>
<!-- broadcaster&#45;&gt;nv -->
<g id="edge60" class="edge">
<title>broadcaster-&gt;nv</title>
<path fill="none" stroke="#000000" d="M340.2761,-2670.0298C391.174,-2655.4876 475.7689,-2631.3176 520.512,-2618.5339"/>
<polygon fill="#000000" stroke="#000000" points="521.5538,-2621.8763 530.2075,-2615.7637 519.6307,-2615.1457 521.5538,-2621.8763"/>
</g>
</g>
</svg>